<svg width="39" height="33" viewBox="0 0 39 33" fill="none" xmlns="http://www.w3.org/2000/svg">
<path d="M0.847559 11.7358C0.380875 11.7358 0 12.1158 0 12.5841V14.3689C0 14.8398 0.381535 15.2206 0.847559 15.2206C1.31359 15.2206 1.69512 14.8405 1.69512 14.3689V12.5841C1.69512 12.1151 1.31425 11.7358 0.847559 11.7358ZM3.50642 23.2912C3.50642 25.482 5.19033 26.8125 7.10991 26.8125C7.87232 26.8125 8.45452 26.6308 8.66703 26.5704V24.7451C8.59375 24.7862 8.03537 25.1059 7.23265 25.1059C6.09466 25.1059 5.36129 24.3013 5.36129 23.2906C5.36129 22.2797 6.127 21.4772 7.23265 21.4772C8.04919 21.4772 8.59841 21.8041 8.66703 21.84V20.0146C8.50665 19.9669 7.91324 19.7713 7.10991 19.7713C5.0319 19.7713 3.50642 21.2609 3.50642 23.2912ZM10.1615 6.1875C9.86974 6.1875 9.61165 6.33607 9.45914 6.56158C9.36739 6.69689 9.31395 6.86005 9.31395 7.03581V16.0656C9.31395 16.2427 9.36739 16.4065 9.45914 16.5418C9.61165 16.768 9.86974 16.9166 10.1615 16.9166C10.4532 16.9166 10.7114 16.768 10.8638 16.5418C10.9556 16.4058 11.0091 16.242 11.0091 16.0656V7.03649C11.0091 6.86072 10.9556 6.69756 10.8638 6.56225C10.7114 6.33674 10.4532 6.1875 10.1615 6.1875ZM24.1265 15.2206C24.5932 15.2206 24.974 14.8405 24.974 14.3689V10.2414C24.974 9.77316 24.5932 9.39242 24.1265 9.39242C23.6598 9.39242 23.2789 9.77316 23.2789 10.2414V14.3696C23.2789 14.8405 23.6598 15.2206 24.1265 15.2206ZM31.8635 19.7713C29.7822 19.7713 28.289 21.3485 28.289 23.2906C28.289 25.2326 29.7815 26.8118 31.8635 26.8118C33.9454 26.8118 35.4398 25.2352 35.4398 23.2906C35.4398 21.3458 33.9447 19.7713 31.8635 19.7713ZM31.8635 25.0807C30.8502 25.0807 30.0984 24.2802 30.0984 23.2912C30.0984 22.3023 30.8508 21.503 31.8635 21.503C32.876 21.503 33.6298 22.3036 33.6298 23.2912C33.6298 24.2788 32.8754 25.0807 31.8635 25.0807ZM11.0137 26.6918H12.7213V19.892H11.0137V26.6918ZM5.50454 15.2206C5.97122 15.2206 6.35209 14.8405 6.35209 14.3689V10.2414C6.35209 9.77316 5.97122 9.39242 5.50454 9.39242C5.03784 9.39242 4.65697 9.77316 4.65697 10.2414V14.3696C4.65697 14.8405 5.03784 15.2206 5.50454 15.2206ZM33.4411 15.2206C33.9078 15.2206 34.2887 14.8405 34.2887 14.3689V10.2414C34.2887 9.77316 33.9078 9.39242 33.4411 9.39242C32.9744 9.39242 32.5935 9.77316 32.5935 10.2414V14.3696C32.5935 14.8405 32.9744 15.2206 33.4411 15.2206ZM28.7841 16.9166C29.0759 16.9166 29.334 16.768 29.4865 16.5418C29.5782 16.4058 29.6317 16.242 29.6317 16.0656V7.03649C29.6317 6.86072 29.5782 6.69756 29.4865 6.56225C29.334 6.33674 29.0759 6.18816 28.7841 6.18816C28.4924 6.18816 28.2342 6.33674 28.0818 6.56225C27.99 6.69756 27.9365 6.86072 27.9365 7.03649V16.0656C27.9365 16.2427 27.99 16.4065 28.0818 16.5418C28.2342 16.768 28.4924 16.9166 28.7841 16.9166ZM38.0981 11.7351C37.6314 11.7351 37.2505 12.1151 37.2505 12.5834V14.3683C37.2505 14.8392 37.6314 15.2199 38.0981 15.2199C38.5647 15.2199 38.9456 14.8398 38.9456 14.3683V12.5834C38.9456 12.1144 38.5641 11.7351 38.0981 11.7351ZM21.3316 23.2906C21.3316 25.4813 23.0155 26.8118 24.9351 26.8118C25.6975 26.8118 26.2797 26.6301 26.4922 26.5697V24.7444C26.419 24.7855 25.8606 25.1052 25.0578 25.1052C23.9199 25.1052 23.1865 24.3007 23.1865 23.2899C23.1865 22.2791 23.9522 21.4765 25.0578 21.4765C25.8744 21.4765 26.4236 21.8035 26.4922 21.8393V20.014C26.3318 19.9662 25.7384 19.7706 24.9351 19.7706C22.8571 19.7706 21.3316 21.2603 21.3316 23.2906ZM19.4761 11.7351C19.4761 11.7351 19.4741 11.7351 19.4735 11.7351C19.4728 11.7351 19.4715 11.7351 19.4709 11.7351C19.0042 11.7351 18.6233 12.1151 18.6233 12.5834V14.3683C18.6233 14.8392 19.0048 15.2199 19.4709 15.2199C19.4715 15.2199 19.4728 15.2199 19.4735 15.2199C19.4741 15.2199 19.4754 15.2199 19.4761 15.2199C19.9428 15.2199 20.3237 14.8398 20.3237 14.3683V12.5834C20.3237 12.1144 19.9421 11.7351 19.4761 11.7351ZM15.6667 14.3689V10.2414C15.6667 9.77316 15.2858 9.39242 14.8191 9.39242C14.3525 9.39242 13.9716 9.77316 13.9716 10.2414V14.3696C13.9716 14.8405 14.3525 15.2212 14.8191 15.2212C15.2858 15.2212 15.6667 14.8405 15.6667 14.3689ZM18.0615 22.5855L17.5902 22.4349C17.309 22.346 16.8074 22.2014 16.8074 21.7876C16.8074 21.4606 17.179 21.2304 17.8635 21.2304C18.4543 21.2304 19.1732 21.4301 19.1982 21.438V19.9868C19.1474 19.9729 18.3652 19.7699 17.5334 19.7699C15.9591 19.7699 15.0119 20.6242 15.0119 21.8957C15.0119 23.0213 15.8046 23.583 16.7558 23.8848C16.8615 23.92 17.0166 23.9684 17.1202 24.0029C17.544 24.1369 17.882 24.3358 17.882 24.6801C17.882 25.0654 17.4912 25.3149 16.6416 25.3149C15.8951 25.3149 15.1796 25.1006 15.029 25.0621V26.6268C15.1128 26.6447 15.9637 26.8125 16.872 26.8125C18.179 26.8125 19.6734 26.2388 19.6734 24.5308C19.6734 23.7025 19.1685 22.9397 18.0602 22.5855H18.0615Z" fill="#050038"/>
</svg>
