<svg width="45" height="33" viewBox="0 0 45 33" fill="none" xmlns="http://www.w3.org/2000/svg">
<path d="M41.443 20.4896C41.443 19.8439 41.9628 19.32 42.6028 19.32C43.2432 19.32 43.7624 19.8439 43.7624 20.4896C43.7624 21.1353 43.2432 21.6588 42.6028 21.6588C41.9628 21.6588 41.443 21.1353 41.443 20.4896Z" fill="#050038"/>
<path d="M4.45164 17.3918C4.45164 16.651 4.30969 16.1014 4.02576 15.7434C3.74148 15.3857 3.31085 15.207 2.73193 15.207H2.11609V19.737H2.58726C3.2303 19.737 3.70153 19.5448 4.00157 19.159C4.30126 18.7739 4.45164 18.1847 4.45164 17.3918ZM6.6479 17.3146C6.6479 18.6643 6.28811 19.7042 5.56855 20.4341C4.84898 21.1644 3.83746 21.5296 2.53358 21.5296H0V13.4425H2.71043C3.96765 13.4425 4.93825 13.7745 5.62223 14.4381C6.3059 15.1021 6.6479 16.0605 6.6479 17.3146Z" fill="#050038"/>
<path d="M33.867 19.991C34.1392 19.991 34.4634 19.9213 34.8417 19.7829V21.3007C34.5702 21.4212 34.3113 21.5075 34.0657 21.5585C33.8197 21.6103 33.5324 21.6361 33.2018 21.6361C32.5249 21.6361 32.0369 21.4645 31.7379 21.122C31.4388 20.7795 31.2892 20.2537 31.2892 19.544V17.0573H30.5827V15.498H31.2892V13.9341L33.3207 13.6011V15.498H34.6077V17.0573H33.3207V19.4052C33.3207 19.7958 33.5029 19.991 33.867 19.991Z" fill="#050038"/>
<path d="M37.3855 17.7655C37.4131 17.4352 37.5067 17.1933 37.6665 17.0386C37.8269 16.8843 38.0249 16.8071 38.2619 16.8071C38.5203 16.8071 38.7256 16.8937 38.878 17.0684C39.0314 17.242 39.1113 17.4745 39.1177 17.7655H37.3855ZM40.2289 16.1019C39.7497 15.6281 39.0697 15.3909 38.19 15.3909C37.2654 15.3909 36.5539 15.6633 36.0552 16.2082C35.5568 16.753 35.3074 17.5348 35.3074 18.5534C35.3074 19.5399 35.5769 20.3006 36.1145 20.8346C36.6526 21.3686 37.408 21.636 38.381 21.636C38.8482 21.636 39.2503 21.6038 39.5872 21.5399C39.9222 21.4766 40.2464 21.3622 40.5608 21.197L40.2511 19.8376C40.0225 19.9317 39.805 20.0041 39.5996 20.0518C39.3029 20.1212 38.9774 20.1561 38.6229 20.1561C38.2344 20.1561 37.9276 20.0603 37.7027 19.8688C37.4778 19.6769 37.358 19.4123 37.3443 19.0752H40.9481V18.149C40.9481 17.2579 40.7085 16.5754 40.2289 16.1019Z" fill="#050038"/>
<path d="M13.6657 21.5298H15.6818V13.4089H13.6657V21.5298Z" fill="#050038"/>
<path d="M18.5141 18.5007C18.5141 19.0185 18.5813 19.4134 18.7152 19.6848C18.8495 19.9565 19.0743 20.0922 19.3904 20.0922C19.7032 20.0922 19.9244 19.9565 20.0533 19.6848C20.1821 19.4134 20.2462 19.0185 20.2462 18.5007C20.2462 17.9857 20.1811 17.5972 20.0506 17.3349C19.9197 17.0719 19.6966 16.9403 19.3801 16.9403C19.0706 16.9403 18.8495 17.0712 18.7152 17.3318C18.5813 17.5928 18.5141 17.9822 18.5141 18.5007ZM22.2982 18.5007C22.2982 19.4872 22.0418 20.2568 21.5276 20.8083C21.0138 21.3603 20.2946 21.6364 19.37 21.6364C18.4833 21.6364 17.7774 21.3542 17.2536 20.7897C16.729 20.2253 16.4669 19.4625 16.4669 18.5007C16.4669 17.5173 16.7237 16.7531 17.2379 16.2083C17.752 15.6634 18.4729 15.3911 19.4012 15.3911C19.9748 15.3911 20.4822 15.5173 20.9219 15.7694C21.3619 16.0215 21.7015 16.3826 21.9401 16.853C22.1791 17.3227 22.2982 17.8723 22.2982 18.5007Z" fill="#050038"/>
<path d="M23.0988 21.53H25.1153V18.422V15.4977H23.0988V21.53Z" fill="#050038"/>
<path d="M23.0988 14.768H25.1153V13.4086H23.0988V14.768Z" fill="#050038"/>
<path d="M29.2003 19.9915C29.4725 19.9915 29.7967 19.9218 30.175 19.7834V21.3012C29.903 21.4217 29.6447 21.5079 29.399 21.5591C29.1533 21.6109 28.865 21.6366 28.5351 21.6366C27.8582 21.6366 27.3702 21.465 27.0705 21.1225C26.7721 20.78 26.6224 20.2541 26.6224 19.5445V17.0578H25.9163V15.4984H26.6224V13.958L28.6543 13.6016V15.4984H29.9407V17.0578H28.6543V19.4058C28.6543 19.7963 28.8365 19.9915 29.2003 19.9915Z" fill="#050038"/>
<path d="M9.32378 17.766C9.35126 17.4358 9.44494 17.1938 9.60462 17.0391C9.76478 16.8848 9.96312 16.8077 10.2005 16.8077C10.4582 16.8077 10.6636 16.8943 10.8163 17.0689C10.9696 17.2425 11.0492 17.475 11.0563 17.766H9.32378ZM12.1674 16.1024C11.6878 15.6286 11.0082 15.3914 10.1283 15.3914C9.2033 15.3914 8.4921 15.6638 7.99369 16.2086C7.49535 16.7535 7.24567 17.5352 7.24567 18.5538C7.24567 19.5403 7.51485 20.3011 8.05314 20.8351C8.59083 21.3691 9.34628 21.6365 10.3192 21.6365C10.7864 21.6365 11.1884 21.6043 11.5254 21.5403C11.8603 21.4771 12.1846 21.3627 12.4994 21.1976L12.1893 19.8381C11.9607 19.9322 11.7432 20.0046 11.5382 20.0523C11.2408 20.1217 10.9156 20.1566 10.5611 20.1566C10.1728 20.1566 9.86583 20.0608 9.64096 19.8692C9.41576 19.6774 9.2963 19.4127 9.28253 19.0757H12.8863V18.1495C12.8863 17.2584 12.6468 16.5758 12.1674 16.1024Z" fill="#050038"/>
</svg>
