<svg width="45" height="45" viewBox="0 0 45 45" fill="none" xmlns="http://www.w3.org/2000/svg">
<g clip-path="url(#clip0_1_293)">
<path d="M35.25 0H9.75C4.36522 0 0 4.36522 0 9.75V35.25C0 40.6348 4.36522 45 9.75 45H35.25C40.6348 45 45 40.6348 45 35.25V9.75C45 4.36522 40.6348 0 35.25 0Z" fill="#FFD02F"/>
<path fill-rule="evenodd" clip-rule="evenodd" d="M31.2577 5.625H26.3186L30.4344 12.8572L21.3796 5.625H16.4406L20.968 14.4643L11.5015 5.625H6.5625L11.5015 16.875L6.5625 39.375H11.5015L20.968 15.2678L16.4406 39.375H21.3796L30.4344 13.6607L26.3186 39.375H31.2577L40.3125 11.25L31.2577 5.625Z" fill="#050038"/>
</g>
<defs>
<clipPath id="clip0_1_293">
<rect width="45" height="45" fill="white"/>
</clipPath>
</defs>
</svg>
