<svg width="27" height="33" viewBox="0 0 27 33" fill="none" xmlns="http://www.w3.org/2000/svg">
<path d="M12.2315 18.9172H15.5085V17.803H15.1487C15.1487 18.2292 14.8426 18.5434 14.3751 18.5434H13.8706V16.88H14.4146V16.511H12.2315V16.88H12.7815V18.5434H12.2315V18.916V18.9172Z" fill="#050038"/>
<path d="M17.0845 18.9184L18.3589 18.9196L19.4409 16.8812H19.9836V16.511H18.3518V16.8812H18.824L18.0349 18.3643L17.2363 16.8812H17.809V16.511H15.4418L15.4406 16.8812H15.9834L17.0845 18.9184Z" fill="#050038"/>
<path d="M5.70628 16.511H3.33912L3.33792 16.8812H3.8795L4.98178 18.9184L6.25622 18.9196L7.33819 16.8812H7.88096V16.511H6.24905V16.8812H6.7201L5.93224 18.3643L5.13362 16.8812H5.70628V16.511Z" fill="#050038"/>
<path d="M8.19808 17.7167C8.19808 18.4254 8.7588 18.9892 9.88261 18.9892C11.0064 18.9892 11.5611 18.4254 11.5611 17.7167C11.5611 17.0178 10.9729 16.4601 9.87545 16.4601C8.77912 16.4601 8.19693 17.0178 8.19693 17.7167H8.19808ZM10.4612 17.7228C10.4541 18.1599 10.2759 18.6154 9.86465 18.608C9.46417 18.6008 9.2884 18.1502 9.29563 17.7021C9.304 17.2382 9.52155 16.8339 9.89698 16.84C10.2724 16.8473 10.4696 17.2589 10.4624 17.7228H10.4612Z" fill="#050038"/>
<path d="M20.2966 17.7167C20.2966 18.4254 20.8574 18.9892 21.9812 18.9892C23.105 18.9892 23.6597 18.4254 23.6597 17.7167C23.6597 17.0178 23.0715 16.4601 21.9752 16.4601C20.8789 16.4601 20.2966 17.0178 20.2966 17.7167ZM21.9955 16.84C22.3697 16.8473 22.5681 17.2589 22.5598 17.7228C22.5514 18.1599 22.3745 18.6154 21.9632 18.608C21.5627 18.6008 21.387 18.1502 21.3941 17.7021C21.4025 17.2382 21.6201 16.8339 21.9955 16.84Z" fill="#050038"/>
<path d="M24.6089 10.0624L23.2376 11.459C24.4129 13.3063 25.0967 15.509 25.0967 17.875C25.0967 24.3981 19.9045 29.6865 13.5 29.6865C7.09553 29.6865 1.9033 24.3981 1.9033 17.875C1.9033 11.3519 7.09553 6.06354 13.5 6.06354C15.8277 6.06354 17.9952 6.76248 19.8125 7.96558L21.1837 6.56888C19.0031 5.02851 16.3549 4.125 13.5 4.125C6.04463 4.125 0 10.2803 0 17.875C0 25.4684 6.04344 31.625 13.5 31.625C20.9554 31.625 27 25.4697 27 17.875C27 14.9733 26.1165 12.281 24.6101 10.0624H24.6089Z" fill="#050038"/>
<path d="M20.2896 4.6665V5.05251C21.1085 5.50426 21.8785 6.03761 22.5922 6.6367L20.6686 8.59591C21.3943 9.17554 22.0494 9.84283 22.6197 10.5807L24.5409 8.62396C25.1303 9.35209 25.654 10.1375 26.0975 10.9595H26.467V4.6665H20.2884H20.2896Z" fill="#050038"/>
</svg>
