<svg width="60" height="33" viewBox="0 0 60 33" fill="none" xmlns="http://www.w3.org/2000/svg">
<path d="M34.6349 18.02C34.6349 16.5942 34.0297 15.3345 31.9826 15.3345C30.9323 15.3345 30.0981 15.6363 29.6457 15.9005L29.9772 17.0444C30.3937 16.7809 31.0583 16.5639 31.6855 16.5639C32.7218 16.5625 32.8916 17.1536 32.8916 17.5336V17.6252C30.6293 17.6214 29.1993 18.4097 29.1993 20.0148C29.1993 20.9956 29.9253 21.9151 31.1943 21.9151C31.9687 21.9151 32.623 21.5999 33.0138 21.1025H33.0519C33.0519 21.1025 33.3096 22.1896 34.7345 21.7741C34.662 21.3187 34.6349 20.8391 34.6349 20.2561V18.02ZM32.9472 19.5255C32.9472 19.6406 32.9378 19.7602 32.9041 19.8628C32.7738 20.3019 32.3244 20.6693 31.7652 20.6693C31.2932 20.6693 30.9228 20.4 30.9228 19.8354C30.9228 18.972 31.8684 18.7344 32.9472 18.7403" fill="#050038"/>
<path d="M0 13.3948C0 13.3948 1.47766 19.4906 1.7126 20.478C1.98925 21.6322 2.48474 22.0588 3.91485 21.7746L4.83848 17.9947C5.07196 17.0582 5.23076 16.3866 5.38154 15.4324H5.40715C5.5118 16.3962 5.66259 17.0582 5.85361 17.9976C5.85361 17.9976 6.23052 19.715 6.42595 20.6145C6.61622 21.5141 7.15193 22.0817 8.55498 21.7746L10.7536 13.3948H8.97873L8.22416 17.0198C8.02439 18.07 7.84289 18.8972 7.70161 19.8596H7.67598C7.54868 18.9076 7.38689 18.1142 7.17907 17.0855L6.3974 13.3948H4.54574L3.71137 16.991C3.4735 18.0892 3.25102 18.9696 3.11122 19.9016H3.08708C2.9429 19.0271 2.7475 17.9135 2.54035 16.8567C2.54035 16.8567 2.04487 14.2819 1.86996 13.3948" fill="#050038"/>
<path d="M15.6994 18.02C15.6994 16.5942 15.0926 15.3345 13.0456 15.3345C11.9982 15.3345 11.1624 15.6363 10.7101 15.9005L11.0416 17.0444C11.4566 16.7809 12.1205 16.5639 12.7499 16.5639C13.7862 16.5625 13.956 17.1536 13.956 17.5336V17.6252C11.6938 17.6214 10.2622 18.4097 10.2622 20.0148C10.2622 20.9956 10.9912 21.9151 12.2544 21.9151C13.036 21.9151 13.6845 21.5999 14.0753 21.1025H14.1149C14.1149 21.1025 14.3739 22.1896 15.7974 21.7741C15.7243 21.3187 15.6994 20.8391 15.6994 20.2561V18.02ZM14.0102 19.5255C14.0102 19.6406 14.0007 19.7602 13.9685 19.8628C13.8367 20.3019 13.3874 20.6693 12.8268 20.6693C12.3576 20.6693 11.9858 20.4 11.9858 19.8354C11.9858 18.972 12.9314 18.7344 14.0102 18.7403" fill="#050038"/>
<path d="M16.6205 13.3948V21.7717H18.3097V19.9954V13.3948H16.6205Z" fill="#050038"/>
<path d="M39.8192 13.3948V19.5755C39.8192 20.4286 39.9779 21.0234 40.3197 21.3879C40.6198 21.7075 41.1109 21.9156 41.6957 21.9156C42.1977 21.9156 42.6888 21.8182 42.9208 21.7333L42.9004 20.4027C42.7269 20.4433 42.5286 20.478 42.2562 20.478C41.6796 20.478 41.4893 20.1097 41.4893 19.3437V16.9777H42.9604V15.377H41.4893V13.3948" fill="#050038"/>
<path d="M35.4534 15.4797V21.774H37.1996V18.5504C37.1996 18.3771 37.2106 18.2272 37.2377 18.0884C37.3679 17.4088 37.8796 16.9785 38.6165 16.9785C38.8222 16.9785 38.962 17.0014 39.1172 17.0258V15.3756C38.9869 15.3521 38.8983 15.3395 38.738 15.3395C38.0844 15.3395 37.3438 15.7579 37.0313 16.6693H36.9881V15.4797" fill="#050038"/>
<path d="M19.2907 15.4797V21.774H20.9924V18.0796C20.9924 17.9062 21.0114 17.7291 21.0721 17.5689C21.2105 17.1948 21.5537 16.7616 22.1048 16.7616C22.7898 16.7616 23.1134 17.3446 23.1134 18.1859V21.774H24.8106V18.0354C24.8106 17.8722 24.8333 17.6722 24.8808 17.5276C25.017 17.1033 25.3888 16.7616 25.9026 16.7616C26.5949 16.7616 26.9302 17.3321 26.9302 18.3239V21.774H28.6259V18.0627C28.6259 16.1129 27.6423 15.3395 26.5254 15.3395C26.0343 15.3395 25.6435 15.4612 25.2922 15.6797C24.995 15.8634 24.7345 16.1225 24.501 16.4612H24.4754C24.2068 15.7837 23.5759 15.3395 22.7518 15.3395C21.695 15.3395 21.2148 15.8774 20.9324 16.3321H20.9067V15.4797" fill="#050038"/>
<path d="M52.0996 15.1974C52.4333 15.1974 52.7144 15.0217 52.751 14.7959L53.0818 11.0174C53.0818 10.6433 52.6449 10.337 52.0996 10.337C51.5514 10.337 51.1174 10.6433 51.1174 11.0174L51.4511 14.7959C51.4863 15.0217 51.7658 15.1974 52.0996 15.1974Z" fill="#050038"/>
<path d="M50.0697 16.3798C50.2351 16.0846 50.2255 15.757 50.047 15.6108L46.9584 13.4331C46.6371 13.2441 46.1563 13.4692 45.8811 13.9459C45.6066 14.422 45.6623 14.9562 45.977 15.1414L49.3963 16.7399C49.6152 16.8226 49.9013 16.6691 50.0697 16.3769" fill="#050038"/>
<path d="M54.1287 16.3767C54.3036 16.669 54.5897 16.8225 54.8027 16.7443L58.2221 15.1414C58.5398 14.9525 58.5873 14.4233 58.3187 13.9473C58.0443 13.4705 57.5605 13.247 57.2399 13.4322L54.1506 15.6078C53.9793 15.7561 53.9669 16.0852 54.1323 16.3797" fill="#050038"/>
<path d="M52.0996 19.917C52.4333 19.917 52.7144 20.0926 52.751 20.3185L53.0818 24.0969C53.0818 24.4711 52.6449 24.7744 52.0996 24.7744C51.5514 24.7744 51.1174 24.4711 51.1174 24.0969L51.4511 20.3185C51.4863 20.0926 51.7658 19.917 52.0996 19.917Z" fill="#050038"/>
<path d="M54.1287 18.7384C54.3036 18.4454 54.5897 18.2889 54.8027 18.3738L58.2221 19.9738C58.5398 20.159 58.5873 20.6926 58.3187 21.1693C58.0443 21.6423 57.5605 21.8674 57.2399 21.6822L54.1506 19.5037C53.9793 19.3568 53.9669 19.0292 54.1323 18.7384" fill="#050038"/>
<path d="M50.0697 18.7353C50.2351 19.0297 50.2255 19.3566 50.047 19.5042L46.9584 21.6791C46.6371 21.868 46.1563 21.6422 45.8811 21.1692C45.6066 20.6931 45.6623 20.1588 45.977 19.9736L49.3963 18.3736C49.6152 18.2895 49.9013 18.4445 50.0697 18.7353Z" fill="#050038"/>
<path d="M59.2226 21.3504H59.2651C59.3229 21.3504 59.3463 21.3688 59.3529 21.4154C59.3654 21.467 59.3719 21.5017 59.3844 21.5164H59.4942C59.4846 21.5054 59.4722 21.4773 59.4656 21.4124C59.4532 21.3563 59.4246 21.3246 59.3844 21.3135V21.3032C59.44 21.2907 59.4722 21.253 59.4722 21.2065C59.4722 21.1644 59.4532 21.1342 59.4341 21.115C59.3976 21.0973 59.3624 21.0832 59.2849 21.0832C59.2161 21.0832 59.1655 21.0892 59.1253 21.0988V21.5164H59.2226V21.3504ZM59.2255 21.16L59.2753 21.1534C59.3339 21.1534 59.3654 21.1807 59.3654 21.219C59.3654 21.2619 59.3229 21.2818 59.2688 21.2818H59.2255V21.16ZM59.2878 20.8766C59.0477 20.8766 58.8574 21.0656 58.8574 21.2973C58.8574 21.5349 59.0477 21.7239 59.2878 21.7239C59.5308 21.7239 59.7152 21.5349 59.7152 21.2973C59.7152 21.0656 59.5308 20.8766 59.2878 20.8766ZM59.2878 20.9615C59.4722 20.9615 59.6091 21.112 59.6091 21.2973C59.6091 21.484 59.4722 21.6389 59.2878 21.636C59.1034 21.636 58.9635 21.484 58.9635 21.2973C58.9635 21.112 59.1034 20.9615 59.2849 20.9615" fill="#050038"/>
</svg>
